<mxfile host="app.diagrams.net" modified="2022-10-18T20:49:50.811Z" agent="5.0 (Macintosh; Intel Mac OS X 10_15_7) AppleWebKit/605.1.15 (KHTML, like Gecko) Version/15.2 Safari/605.1.15" etag="T-uo2G_6EbKpWF0nhkRS" version="20.4.0" type="github">
  <diagram id="2B8HeTFWgGuEjmucc7ja" name="Page-1">
    <mxGraphModel dx="1527" dy="988" grid="1" gridSize="10" guides="1" tooltips="1" connect="1" arrows="1" fold="1" page="1" pageScale="1" pageWidth="850" pageHeight="1100" math="0" shadow="0">
      <root>
        <mxCell id="0" />
        <mxCell id="1" parent="0" />
        <mxCell id="P76DowJpvTOQ1wrHwXYp-2" value="" style="edgeStyle=orthogonalEdgeStyle;rounded=0;orthogonalLoop=1;jettySize=auto;html=1;strokeColor=#FF8000;fontColor=#FF8000;endArrow=block;endFill=1;strokeWidth=2;" parent="1" source="P76DowJpvTOQ1wrHwXYp-3" target="P76DowJpvTOQ1wrHwXYp-6" edge="1">
          <mxGeometry relative="1" as="geometry" />
        </mxCell>
        <mxCell id="P76DowJpvTOQ1wrHwXYp-3" value="Exercise" style="whiteSpace=wrap;html=1;fillColor=#FFFFFF;strokeColor=#FF8000;fontColor=#FF8000;rounded=1;strokeWidth=2;" parent="1" vertex="1">
          <mxGeometry x="410" y="110" width="120" height="60" as="geometry" />
        </mxCell>
        <mxCell id="P76DowJpvTOQ1wrHwXYp-4" value="" style="edgeStyle=orthogonalEdgeStyle;rounded=0;orthogonalLoop=1;jettySize=auto;html=1;strokeColor=#FF8000;fontColor=#FF8000;endArrow=block;endFill=1;strokeWidth=2;" parent="1" source="P76DowJpvTOQ1wrHwXYp-6" target="P76DowJpvTOQ1wrHwXYp-8" edge="1">
          <mxGeometry relative="1" as="geometry" />
        </mxCell>
        <mxCell id="P76DowJpvTOQ1wrHwXYp-6" value="ExerciseRecord" style="whiteSpace=wrap;html=1;fillColor=#FFFFFF;strokeColor=#FF8000;fontColor=#FF8000;rounded=1;strokeWidth=2;" parent="1" vertex="1">
          <mxGeometry x="590" y="110" width="120" height="60" as="geometry" />
        </mxCell>
        <mxCell id="P76DowJpvTOQ1wrHwXYp-8" value="SetRecord" style="whiteSpace=wrap;html=1;fillColor=#FFFFFF;strokeColor=#FF8000;fontColor=#FF8000;rounded=1;strokeWidth=2;" parent="1" vertex="1">
          <mxGeometry x="590" y="20" width="120" height="60" as="geometry" />
        </mxCell>
        <mxCell id="P76DowJpvTOQ1wrHwXYp-9" value="Tag" style="whiteSpace=wrap;html=1;fillColor=#FFFFFF;strokeColor=#FF8000;fontColor=#FF8000;rounded=1;strokeWidth=2;" parent="1" vertex="1">
          <mxGeometry x="410" y="20" width="120" height="60" as="geometry" />
        </mxCell>
        <mxCell id="P76DowJpvTOQ1wrHwXYp-12" value="" style="edgeStyle=orthogonalEdgeStyle;rounded=0;orthogonalLoop=1;jettySize=auto;html=1;strokeColor=#FF8000;fontColor=#FF8000;endArrow=block;endFill=1;strokeWidth=2;exitX=0.5;exitY=0;exitDx=0;exitDy=0;" parent="1" source="P76DowJpvTOQ1wrHwXYp-3" target="P76DowJpvTOQ1wrHwXYp-9" edge="1">
          <mxGeometry relative="1" as="geometry">
            <mxPoint x="540" y="250" as="sourcePoint" />
            <mxPoint x="600" y="250" as="targetPoint" />
          </mxGeometry>
        </mxCell>
        <mxCell id="P76DowJpvTOQ1wrHwXYp-16" style="edgeStyle=orthogonalEdgeStyle;rounded=0;orthogonalLoop=1;jettySize=auto;html=1;exitX=1;exitY=0.5;exitDx=0;exitDy=0;strokeWidth=2;strokeColor=#FF8000;endArrow=block;endFill=1;" parent="1" source="P76DowJpvTOQ1wrHwXYp-13" target="P76DowJpvTOQ1wrHwXYp-3" edge="1">
          <mxGeometry relative="1" as="geometry">
            <Array as="points">
              <mxPoint x="450" y="140" />
              <mxPoint x="450" y="140" />
            </Array>
          </mxGeometry>
        </mxCell>
        <mxCell id="P76DowJpvTOQ1wrHwXYp-17" style="edgeStyle=orthogonalEdgeStyle;rounded=0;orthogonalLoop=1;jettySize=auto;html=1;exitX=0.5;exitY=1;exitDx=0;exitDy=0;strokeColor=#FF8000;strokeWidth=2;endArrow=block;endFill=1;" parent="1" source="P76DowJpvTOQ1wrHwXYp-13" target="P76DowJpvTOQ1wrHwXYp-18" edge="1">
          <mxGeometry relative="1" as="geometry">
            <mxPoint x="290" y="220" as="targetPoint" />
            <Array as="points">
              <mxPoint x="290" y="230" />
              <mxPoint x="300" y="230" />
            </Array>
          </mxGeometry>
        </mxCell>
        <mxCell id="P76DowJpvTOQ1wrHwXYp-13" value="Routine" style="whiteSpace=wrap;html=1;fillColor=#FFFFFF;strokeColor=#FF8000;fontColor=#FF8000;rounded=1;strokeWidth=2;" parent="1" vertex="1">
          <mxGeometry x="230" y="110" width="120" height="60" as="geometry" />
        </mxCell>
        <mxCell id="P76DowJpvTOQ1wrHwXYp-19" style="edgeStyle=orthogonalEdgeStyle;rounded=0;orthogonalLoop=1;jettySize=auto;html=1;exitX=1;exitY=0.5;exitDx=0;exitDy=0;strokeColor=#FF8000;strokeWidth=2;endArrow=block;endFill=1;" parent="1" source="P76DowJpvTOQ1wrHwXYp-18" target="P76DowJpvTOQ1wrHwXYp-6" edge="1">
          <mxGeometry relative="1" as="geometry" />
        </mxCell>
        <mxCell id="P76DowJpvTOQ1wrHwXYp-18" value="RoutineRecord" style="whiteSpace=wrap;html=1;fillColor=#FFFFFF;strokeColor=#FF8000;fontColor=#FF8000;rounded=1;strokeWidth=2;" parent="1" vertex="1">
          <mxGeometry x="410" y="200" width="120" height="60" as="geometry" />
        </mxCell>
        <mxCell id="P76DowJpvTOQ1wrHwXYp-21" style="edgeStyle=orthogonalEdgeStyle;rounded=0;orthogonalLoop=1;jettySize=auto;html=1;exitX=1;exitY=0.5;exitDx=0;exitDy=0;strokeColor=#FF8000;strokeWidth=2;endArrow=block;endFill=1;entryX=0;entryY=0.5;entryDx=0;entryDy=0;" parent="1" source="P76DowJpvTOQ1wrHwXYp-20" target="A9DVxl9CaK6HadDMUJsp-2" edge="1">
          <mxGeometry relative="1" as="geometry" />
        </mxCell>
        <mxCell id="P76DowJpvTOQ1wrHwXYp-20" value="&amp;lt;RoutineRepository&amp;gt;" style="whiteSpace=wrap;html=1;fillColor=#FFFFFF;strokeColor=#FF8000;fontColor=#FF8000;rounded=1;strokeWidth=2;" parent="1" vertex="1">
          <mxGeometry x="60" y="110" width="120" height="60" as="geometry" />
        </mxCell>
        <mxCell id="nDqYQMqsm7BXhGVikqZE-32" style="edgeStyle=orthogonalEdgeStyle;rounded=0;orthogonalLoop=1;jettySize=auto;html=1;exitX=0.5;exitY=1;exitDx=0;exitDy=0;strokeColor=#FF0000;strokeWidth=2;endArrow=block;endFill=1;" parent="1" source="nDqYQMqsm7BXhGVikqZE-3" target="nDqYQMqsm7BXhGVikqZE-7" edge="1">
          <mxGeometry relative="1" as="geometry" />
        </mxCell>
        <mxCell id="nDqYQMqsm7BXhGVikqZE-33" style="edgeStyle=orthogonalEdgeStyle;rounded=0;orthogonalLoop=1;jettySize=auto;html=1;exitX=1;exitY=0.5;exitDx=0;exitDy=0;strokeColor=#FF0000;strokeWidth=2;endArrow=block;endFill=1;entryX=0;entryY=0.481;entryDx=0;entryDy=0;entryPerimeter=0;" parent="1" source="nDqYQMqsm7BXhGVikqZE-3" target="A9DVxl9CaK6HadDMUJsp-3" edge="1">
          <mxGeometry relative="1" as="geometry" />
        </mxCell>
        <mxCell id="nDqYQMqsm7BXhGVikqZE-38" style="edgeStyle=orthogonalEdgeStyle;rounded=0;orthogonalLoop=1;jettySize=auto;html=1;exitX=0.5;exitY=0;exitDx=0;exitDy=0;strokeColor=#FF0000;strokeWidth=2;endArrow=block;endFill=1;dashed=1;" parent="1" source="nDqYQMqsm7BXhGVikqZE-3" target="P76DowJpvTOQ1wrHwXYp-20" edge="1">
          <mxGeometry relative="1" as="geometry" />
        </mxCell>
        <mxCell id="A9DVxl9CaK6HadDMUJsp-5" style="edgeStyle=orthogonalEdgeStyle;rounded=0;orthogonalLoop=1;jettySize=auto;html=1;exitX=1;exitY=0.25;exitDx=0;exitDy=0;strokeWidth=2;strokeColor=#FF0000;entryX=0;entryY=0.75;entryDx=0;entryDy=0;endArrow=block;endFill=1;" edge="1" parent="1" source="nDqYQMqsm7BXhGVikqZE-3" target="A9DVxl9CaK6HadDMUJsp-2">
          <mxGeometry relative="1" as="geometry">
            <mxPoint x="160.0000000000001" y="310" as="targetPoint" />
            <Array as="points">
              <mxPoint x="200" y="425" />
              <mxPoint x="200" y="205" />
            </Array>
          </mxGeometry>
        </mxCell>
        <mxCell id="nDqYQMqsm7BXhGVikqZE-3" value="LocalRoutineRepository" style="rounded=1;whiteSpace=wrap;html=1;strokeColor=#FF0000;strokeWidth=2;fillColor=#FFFFFF;fontColor=#FF0000;" parent="1" vertex="1">
          <mxGeometry x="50" y="410" width="140" height="60" as="geometry" />
        </mxCell>
        <mxCell id="nDqYQMqsm7BXhGVikqZE-7" value="&amp;lt;RoutineStore&amp;gt;" style="whiteSpace=wrap;html=1;fillColor=#FFFFFF;strokeColor=#FF0000;fontColor=#FF0000;rounded=1;strokeWidth=2;" parent="1" vertex="1">
          <mxGeometry x="60" y="630" width="120" height="60" as="geometry" />
        </mxCell>
        <mxCell id="nDqYQMqsm7BXhGVikqZE-26" value="" style="edgeStyle=orthogonalEdgeStyle;rounded=0;orthogonalLoop=1;jettySize=auto;html=1;strokeColor=#FF0000;strokeWidth=2;endArrow=block;endFill=1;" parent="1" source="nDqYQMqsm7BXhGVikqZE-21" target="nDqYQMqsm7BXhGVikqZE-25" edge="1">
          <mxGeometry relative="1" as="geometry" />
        </mxCell>
        <mxCell id="nDqYQMqsm7BXhGVikqZE-30" value="" style="edgeStyle=orthogonalEdgeStyle;rounded=0;orthogonalLoop=1;jettySize=auto;html=1;strokeColor=#FF0000;strokeWidth=2;endArrow=block;endFill=1;" parent="1" source="nDqYQMqsm7BXhGVikqZE-21" target="nDqYQMqsm7BXhGVikqZE-29" edge="1">
          <mxGeometry relative="1" as="geometry" />
        </mxCell>
        <mxCell id="nDqYQMqsm7BXhGVikqZE-21" value="LocalExercise" style="rounded=1;whiteSpace=wrap;html=1;strokeColor=#FF0000;strokeWidth=2;fillColor=#FFFFFF;fontColor=#FF0000;" parent="1" vertex="1">
          <mxGeometry x="410" y="410" width="110" height="60" as="geometry" />
        </mxCell>
        <mxCell id="nDqYQMqsm7BXhGVikqZE-23" style="edgeStyle=orthogonalEdgeStyle;rounded=0;orthogonalLoop=1;jettySize=auto;html=1;exitX=1;exitY=0.5;exitDx=0;exitDy=0;strokeColor=#FF0000;strokeWidth=2;endArrow=block;endFill=1;" parent="1" source="nDqYQMqsm7BXhGVikqZE-22" target="nDqYQMqsm7BXhGVikqZE-21" edge="1">
          <mxGeometry relative="1" as="geometry" />
        </mxCell>
        <mxCell id="nDqYQMqsm7BXhGVikqZE-35" value="" style="edgeStyle=orthogonalEdgeStyle;rounded=0;orthogonalLoop=1;jettySize=auto;html=1;strokeColor=#FF0000;strokeWidth=2;endArrow=block;endFill=1;entryX=0;entryY=0.5;entryDx=0;entryDy=0;exitX=0.5;exitY=1;exitDx=0;exitDy=0;" parent="1" source="nDqYQMqsm7BXhGVikqZE-22" target="nDqYQMqsm7BXhGVikqZE-34" edge="1">
          <mxGeometry relative="1" as="geometry" />
        </mxCell>
        <mxCell id="nDqYQMqsm7BXhGVikqZE-22" value="LocalRoutine" style="rounded=1;whiteSpace=wrap;html=1;strokeColor=#FF0000;strokeWidth=2;fillColor=#FFFFFF;fontColor=#FF0000;" parent="1" vertex="1">
          <mxGeometry x="237.5" y="410" width="110" height="60" as="geometry" />
        </mxCell>
        <mxCell id="nDqYQMqsm7BXhGVikqZE-28" value="" style="edgeStyle=orthogonalEdgeStyle;rounded=0;orthogonalLoop=1;jettySize=auto;html=1;strokeColor=#FF0000;strokeWidth=2;endArrow=block;endFill=1;" parent="1" source="nDqYQMqsm7BXhGVikqZE-25" target="nDqYQMqsm7BXhGVikqZE-27" edge="1">
          <mxGeometry relative="1" as="geometry" />
        </mxCell>
        <mxCell id="nDqYQMqsm7BXhGVikqZE-25" value="LocalExerciseRecord" style="whiteSpace=wrap;html=1;fillColor=#FFFFFF;strokeColor=#FF0000;fontColor=#FF0000;rounded=1;strokeWidth=2;" parent="1" vertex="1">
          <mxGeometry x="590" y="410" width="120" height="60" as="geometry" />
        </mxCell>
        <mxCell id="nDqYQMqsm7BXhGVikqZE-27" value="LocalSetRecord" style="whiteSpace=wrap;html=1;fillColor=#FFFFFF;strokeColor=#FF0000;fontColor=#FF0000;rounded=1;strokeWidth=2;" parent="1" vertex="1">
          <mxGeometry x="590" y="320" width="120" height="60" as="geometry" />
        </mxCell>
        <mxCell id="nDqYQMqsm7BXhGVikqZE-29" value="LocalTag" style="whiteSpace=wrap;html=1;fillColor=#FFFFFF;strokeColor=#FF0000;fontColor=#FF0000;rounded=1;strokeWidth=2;" parent="1" vertex="1">
          <mxGeometry x="405" y="320" width="120" height="60" as="geometry" />
        </mxCell>
        <mxCell id="nDqYQMqsm7BXhGVikqZE-36" style="edgeStyle=orthogonalEdgeStyle;rounded=0;orthogonalLoop=1;jettySize=auto;html=1;exitX=1;exitY=0.5;exitDx=0;exitDy=0;strokeColor=#FF0000;strokeWidth=2;endArrow=block;endFill=1;" parent="1" source="nDqYQMqsm7BXhGVikqZE-34" target="nDqYQMqsm7BXhGVikqZE-25" edge="1">
          <mxGeometry relative="1" as="geometry" />
        </mxCell>
        <mxCell id="nDqYQMqsm7BXhGVikqZE-34" value="LocalRoutineRecord" style="whiteSpace=wrap;html=1;fillColor=#FFFFFF;strokeColor=#FF0000;fontColor=#FF0000;rounded=1;strokeWidth=2;" parent="1" vertex="1">
          <mxGeometry x="410" y="510" width="120" height="60" as="geometry" />
        </mxCell>
        <mxCell id="A9DVxl9CaK6HadDMUJsp-2" value="" style="rounded=0;whiteSpace=wrap;html=1;fillColor=none;strokeWidth=2;strokeColor=#FF8000;" vertex="1" parent="1">
          <mxGeometry x="220" y="10" width="510" height="260" as="geometry" />
        </mxCell>
        <mxCell id="A9DVxl9CaK6HadDMUJsp-3" value="" style="rounded=0;whiteSpace=wrap;html=1;strokeColor=#FF0000;strokeWidth=2;fillColor=none;" vertex="1" parent="1">
          <mxGeometry x="220" y="310" width="510" height="270" as="geometry" />
        </mxCell>
        <mxCell id="A9DVxl9CaK6HadDMUJsp-7" style="edgeStyle=orthogonalEdgeStyle;rounded=0;orthogonalLoop=1;jettySize=auto;html=1;exitX=0.5;exitY=0;exitDx=0;exitDy=0;entryX=0.5;entryY=1;entryDx=0;entryDy=0;strokeColor=#3399FF;strokeWidth=2;endArrow=block;endFill=1;" edge="1" parent="1" source="A9DVxl9CaK6HadDMUJsp-6" target="nDqYQMqsm7BXhGVikqZE-7">
          <mxGeometry relative="1" as="geometry" />
        </mxCell>
        <mxCell id="A9DVxl9CaK6HadDMUJsp-14" style="edgeStyle=orthogonalEdgeStyle;rounded=0;orthogonalLoop=1;jettySize=auto;html=1;exitX=1;exitY=0.5;exitDx=0;exitDy=0;strokeColor=#3399FF;strokeWidth=2;fontColor=#3399FF;endArrow=block;endFill=1;" edge="1" parent="1" source="A9DVxl9CaK6HadDMUJsp-6" target="A9DVxl9CaK6HadDMUJsp-12">
          <mxGeometry relative="1" as="geometry" />
        </mxCell>
        <mxCell id="A9DVxl9CaK6HadDMUJsp-16" value="" style="edgeStyle=orthogonalEdgeStyle;rounded=0;orthogonalLoop=1;jettySize=auto;html=1;strokeColor=#3399FF;strokeWidth=2;fontColor=#3399FF;endArrow=block;endFill=1;entryX=0.501;entryY=-0.006;entryDx=0;entryDy=0;entryPerimeter=0;" edge="1" parent="1" source="A9DVxl9CaK6HadDMUJsp-6" target="A9DVxl9CaK6HadDMUJsp-18">
          <mxGeometry relative="1" as="geometry">
            <mxPoint x="120" y="990" as="targetPoint" />
          </mxGeometry>
        </mxCell>
        <mxCell id="A9DVxl9CaK6HadDMUJsp-17" style="edgeStyle=orthogonalEdgeStyle;rounded=0;orthogonalLoop=1;jettySize=auto;html=1;exitX=1;exitY=0.25;exitDx=0;exitDy=0;strokeColor=#3399FF;strokeWidth=2;fontColor=#3399FF;endArrow=block;endFill=1;entryX=0;entryY=0.75;entryDx=0;entryDy=0;" edge="1" parent="1" source="A9DVxl9CaK6HadDMUJsp-6" target="A9DVxl9CaK6HadDMUJsp-3">
          <mxGeometry relative="1" as="geometry">
            <mxPoint x="220" y="690" as="targetPoint" />
            <Array as="points">
              <mxPoint x="200" y="840" />
              <mxPoint x="200" y="512" />
            </Array>
          </mxGeometry>
        </mxCell>
        <mxCell id="A9DVxl9CaK6HadDMUJsp-6" value="&lt;font color=&quot;#3399ff&quot;&gt;CoreDataRoutineStore&lt;/font&gt;" style="rounded=1;whiteSpace=wrap;html=1;strokeColor=#3399FF;strokeWidth=2;fillColor=none;" vertex="1" parent="1">
          <mxGeometry x="45" y="825" width="150" height="60" as="geometry" />
        </mxCell>
        <mxCell id="A9DVxl9CaK6HadDMUJsp-10" style="edgeStyle=orthogonalEdgeStyle;rounded=0;orthogonalLoop=1;jettySize=auto;html=1;exitX=0.5;exitY=1;exitDx=0;exitDy=0;strokeColor=#3399FF;strokeWidth=2;fontColor=#3399FF;endArrow=block;endFill=1;entryX=0;entryY=0.5;entryDx=0;entryDy=0;" edge="1" parent="1" source="A9DVxl9CaK6HadDMUJsp-9" target="A9DVxl9CaK6HadDMUJsp-11">
          <mxGeometry relative="1" as="geometry">
            <mxPoint x="410" y="940" as="targetPoint" />
          </mxGeometry>
        </mxCell>
        <mxCell id="A9DVxl9CaK6HadDMUJsp-12" value="" style="rounded=0;whiteSpace=wrap;html=1;strokeColor=#3399FF;strokeWidth=2;fontColor=#3399FF;fillColor=none;" vertex="1" parent="1">
          <mxGeometry x="230" y="750" width="340" height="210" as="geometry" />
        </mxCell>
        <mxCell id="A9DVxl9CaK6HadDMUJsp-9" value="&lt;font color=&quot;#3399ff&quot;&gt;ManagedRoutine&lt;/font&gt;&amp;nbsp;" style="rounded=1;whiteSpace=wrap;html=1;strokeColor=#3399FF;strokeWidth=2;fillColor=none;" vertex="1" parent="1">
          <mxGeometry x="260" y="800" width="120" height="60" as="geometry" />
        </mxCell>
        <mxCell id="A9DVxl9CaK6HadDMUJsp-11" value="ManagedRoutineRecord" style="rounded=1;whiteSpace=wrap;html=1;strokeColor=#3399FF;strokeWidth=2;fontColor=#3399FF;fillColor=none;" vertex="1" parent="1">
          <mxGeometry x="390" y="890" width="150" height="60" as="geometry" />
        </mxCell>
        <mxCell id="A9DVxl9CaK6HadDMUJsp-18" value="Core Data Framework&amp;nbsp;" style="html=1;verticalLabelPosition=bottom;align=center;labelBackgroundColor=#ffffff;verticalAlign=top;strokeWidth=2;strokeColor=#0080F0;shadow=0;dashed=0;shape=mxgraph.ios7.icons.data;fontColor=#3399FF;fillColor=none;" vertex="1" parent="1">
          <mxGeometry x="99" y="980" width="42" height="60" as="geometry" />
        </mxCell>
      </root>
    </mxGraphModel>
  </diagram>
</mxfile>
